<svg xmlns="http://www.w3.org/2000/svg" viewBox="0 0 32 32" fill="none">
  <circle cx="16" cy="16" r="16" fill="#2775CA"/>
  <path fill="#fff" d="M20.5 18.2c0-2.1-1.3-2.8-3.8-3.1-1.8-.2-2.1-.7-2.1-1.3s.5-1.2 1.9-1.2 1.6.4 1.9 1.1c.1.2.3.3.5.3h.9c.3 0 .5-.2.5-.5v-.1c-.3-1.4-1.2-2.4-2.9-2.6V9.5c0-.3-.2-.5-.5-.5h-1c-.3 0-.5.2-.5.5v1.5c-2 .3-3.2 1.4-3.2 2.9 0 2 1.2 2.7 3.8 3 1.7.3 2.2.7 2.2 1.5 0 .9-.8 1.5-2.1 1.5-1.7 0-2.2-.7-2.4-1.5-.1-.3-.3-.4-.5-.4h-1c-.3 0-.5.2-.5.5v.1c.3 1.6 1.2 2.6 3.2 2.9v1.5c0 .3.2.5.5.5h1c.3 0 .5-.2.5-.5v-1.5c2-.2 3.3-1.4 3.3-3.1z"/>
</svg>
